<?xml version="1.0" standalone="no"?>
<!DOCTYPE svg PUBLIC "-//W3C//DTD SVG 20010904//EN"
 "http://www.w3.org/TR/2001/REC-SVG-20010904/DTD/svg10.dtd">
<svg version="1.0" xmlns="http://www.w3.org/2000/svg"
 width="227.000000pt" height="197.000000pt" viewBox="0 0 227.000000 197.000000"
 preserveAspectRatio="xMidYMid meet">

<g transform="translate(0.000000,197.000000) scale(0.100000,-0.100000)"
fill="#000000" stroke="none">
<path d="M770 1755 l0 -55 -55 0 -55 0 0 -55 0 -55 -55 0 -55 0 0 -110 0 -110
48 0 47 0 0 -55 0 -55 -170 0 -170 0 3 55 4 55 114 0 115 0 -3 58 -3 57 -95 3
c-138 4 -140 3 -140 -63 l0 -55 -55 0 -55 0 0 -60 0 -60 55 0 55 0 0 -55 0
-55 115 0 115 0 0 -53 0 -54 -30 5 c-16 2 -41 1 -55 -2 -25 -6 -25 -7 -25
-116 l0 -110 -47 0 c-73 0 -74 -2 -71 -126 l3 -109 58 -3 57 -3 0 -54 0 -55
54 0 54 0 7 -110 7 -110 54 0 54 0 0 -60 0 -60 60 0 60 0 0 -45 0 -45 55 0
c42 0 55 -3 55 -15 0 -12 13 -15 55 -15 42 0 55 3 55 15 0 12 -13 15 -55 15
l-55 0 0 45 0 45 -55 0 -54 0 -3 57 -3 58 -57 3 -58 3 0 54 0 55 175 0 175 0
0 -55 0 -55 -55 0 -55 0 0 -60 0 -60 55 0 55 0 0 60 0 60 55 0 55 0 0 55 0 55
108 0 107 0 0 52 0 53 58 3 57 3 0 54 0 55 55 0 55 0 0 78 c0 42 3 121 7 175
l6 97 54 0 53 0 0 224 0 225 -52 3 -53 3 -5 55 -5 55 -52 3 -52 3 -3 52 -3 52
-287 3 -288 2 0 -55 0 -55 -44 0 c-70 0 -76 -5 -76 -66 l0 -54 -45 0 -45 0 0
110 0 110 55 0 55 0 0 55 0 55 390 0 390 0 0 -55 0 -55 280 0 280 0 0 -60 0
-60 55 0 55 0 0 -55 c0 -52 1 -55 25 -55 24 0 25 3 25 55 0 52 -1 55 -25 55
-24 0 -25 3 -25 60 l0 60 -55 0 -55 0 0 55 0 55 -280 0 -280 0 0 55 0 55 -390
0 -390 0 0 -55z m670 -330 l0 -55 55 0 55 0 0 -225 0 -225 -55 0 -55 0 0 -55
0 -55 -455 0 -455 0 0 105 0 104 58 3 57 3 3 58 3 57 49 0 49 0 3 113 3 112
58 3 57 3 0 54 0 55 285 0 285 0 0 -55z m-910 -796 l0 -60 -52 3 -53 3 -3 58
-3 57 56 0 55 0 0 -61z m220 -54 l0 -115 -50 0 -50 0 0 115 0 115 50 0 50 0 0
-115z m230 0 l0 -115 -55 0 -55 0 0 115 0 115 55 0 55 0 0 -115z m230 0 l0
-115 -55 0 -55 0 0 115 0 115 55 0 55 0 0 -115z m228 58 l-3 -58 -55 0 -55 0
-3 44 c-5 66 0 71 63 71 l56 0 -3 -57z"/>
<path d="M860 1220 l0 -110 60 0 60 0 0 110 0 110 -60 0 -60 0 0 -110z"/>
<path d="M1220 1200 l0 -120 55 0 55 0 0 120 0 120 -55 0 -55 0 0 -120z"/>
<path d="M980 975 l0 -55 61 0 60 0 -3 53 -3 52 -57 3 -58 3 0 -56z"/>
<path d="M1897 1484 c-4 -4 -7 -31 -7 -60 l0 -53 -57 -3 -58 -3 0 -110 0 -110
58 -3 57 -3 0 -55 0 -55 118 3 117 3 3 53 3 52 48 0 c26 0 51 4 57 9 5 6 7 33
6 60 l-4 51 -54 0 -54 0 0 55 0 55 -60 0 -59 0 -3 58 -3 57 -50 3 c-28 2 -54
0 -58 -4z m103 -174 l0 -60 61 0 60 0 -3 -52 -3 -53 -112 -3 -113 -3 0 109 c0
60 3 112 7 115 3 4 28 7 55 7 l48 0 0 -60z"/>
</g>
</svg>
